<svg xmlns="http://www.w3.org/2000/svg" viewBox="31 172 957 387"><g fill="none" stroke="#FEFEFE" stroke-width="8" stroke-miterlimit="10"><path d="M565.1 333.7c-2.2-.2-17.3 8.5-17.9 11.3-9.3 34.2-20.9 64.4-31.4 90.4-1.2.2-2.8.6-4.2.8 12.1-31.6 25.8-69.3 38.7-111.1 2.2-7-24.4-44.9-47.9-60.8-1.2-1-4.4.4-8.1 3-10.5-19.1-26.2-40.2-38.1-39.6-4.4.2-19.5 15.3-21.7 30.7-4.8 36-6.2 64-18.3 133.6-.8.4-.9-.6-1.5-.3 8.9-53 13.9-104.3 16.2-165.3 0-2.4-1.6-5-4.4-7.4.2-2 .2-4.2.4-6.2.4-10.7-39.3-24.2-66.4-30.2-6.6-1.4-24.2 16.9-31.8 27.4-29.2-18.1-74.5-17.7-91.8 13.1-24.6 43.9 15.9 96 56 95.8 14.9 0 31.6-4 40.9-10.1.2 1-.6 1.4-.4 2.6-5 3.8-15.7 9.5-24.6 15.1-14.3 2.2-27.8 5.2-35 8.5-2.4 1-3.6 5.8-3.6 12.7-4.4 2.2-7.4 3.7-12.1 5.9-16.9-27.4-36.1-65.5-52.2-119.3-.8-2.4-18.5-4-23.6-4.4-2.6-.2-6.6 1.8-11.3 5.2-.4-1-.6-1.6-1-2.6-2.8-6.8-59.2 45.1-62.8 55.8-.6 1.6.6 4.4 4.2 9.5-2.2 3.2-2.8 7.2-3.6 8.9-.6 1.8 1.2 5.8 5 11.3-1.4 1.4-2.2 3.2-2 4.6 1.4 7 13.5 45.7 23.6 79.7-12.3-7.2-17.7-11.5-19.5-11.1-3.4.6-41.1 5.2-41.1 11.3 0 13.1 37.4 92.8 56.6 101.1 8.7 3.8 84.6-1.4 160.3-31.2 1.2-.4 2.6-1 3.8-2.2 2.8 9.3 5.4 17.5 7.7 23.8-7 .4-11.9 1-12.9 1.4-1.6 1 2.6 12.7 4.8 13.5 11.7 3.8 33.4 10.7 45.7 11.5 1.6.2 3.2-1.6 4.2-4.2.2 8.5.4 16.5.6 24.4 0 .6 3.2 5.2 4.8 5.6 8.1 1.8 31.6-1.2 32.2-4.2 7-26 11.7-51.3 17.9-81.1.8.2 4 1.4 4.6 1.8-4.4 22.5-9.7 43.7-15.9 72.5-.4 1.2 3.4 6.2 5.4 6.2 11.3-.4 30.8-7.2 31.6-8.7 7-18.5 14.7-39.9 22.6-62.2l.6-.6c-6.6 41.6-8.1 49.3-8.1 49.9 0 1.4 2.8 10.5 4.8 11.1 1 .4 7.7-1.6 14.5-3.8-.8.4-1.8 1.6-.8 1.6 8.3 0 14.3-1.4 15.1-2 .6-.4 1.8-3 1.6-3.2-.2-.2-1.2-1.2-1.6-1-3.2 1-4.8 2.2-14.1 4.6 7.2-2.6 14.9-5.4 15.9-7 1.6-2.2 9.9-20.3 22.6-51.3 1.2 0 2.5.2 3.6.2-7.9 17.5-14 29.2-17 36.6-1 2.2 1.2 11.3 3.4 11.3 4.6.2 34-13.5 35.8-16.9 4.9-9.2 9.4-17.2 13.6-24.6.7-1.2 5.5-.4 5.5-.4 3.8.3 8.5-2.6 9.1-2.8 2.6-1 23.6-22.6 24-26.2.6-3.8-2-20.1-6.4-22.5 7.2-10.7 10.5-14.9 10.7-18.9 0-6.3-13.3-70.9-15.5-70.9zm-371.1 92s-1-9.3-3.2-22.6c10.1 9.3 20.3 18.5 30.4 26.8-9.5-1-18.7-2.2-27.2-4.2z"/><path d="M575.8 447.8c-.6 0-19.3 24.6-19.5 25.8-.2 2.2 9.7 4.8 11.9 3 2.8-2.2 9.3-17.1 10.3-20.3 1.1-2.2-1.1-8.5-2.7-8.5zM298.5 512c-.8.2 1.2 5.4 2.6 6.2 6.2 4 17.3 11.3 23.8 14.3 3.2 1.4 4.4-7.2 3.8-8.9-.4-.1-28.8-11.8-30.2-11.6zM283.8 479.6c-57.2 19.7-128.5 32-130.7 32.6-1.6.4-8.9 7.5-9.1 8.9-.2 1.8 22.3 12.5 26.2 12.9 6.2.6 62.8-22.5 109.9-45.7 1.5-.8 4.5-8.9 3.7-8.7zM281.4 488.5c-53.8 27.4-97 46.5-100.3 48.5-2 1 18.1 6.4 21.7 5.4 3.6-1 37-22.1 71.7-45.3 1.7-1.2 8.1-9.2 6.9-8.6z"/></g><path fill="none" stroke="#FEFEFE" stroke-width="3.974" stroke-miterlimit="10" d="M512.4 472c-11.7 23.6-21.7 40.5-25.2 46.3M565.1 334.5c-7.9 33.2-21.3 67.4-34.2 97.3M466.5 459.9c-9.7 38.9-17.7 68.5-18.1 70.9M505.9 264.4c.2 23-12.3 81.3-25.2 135.7"/><path fill="none" stroke="#FEFEFE" stroke-width="5.96" stroke-miterlimit="10" d="M567.7 423.5c-14.5 5-44.3 13.5-86.8 17.5"/><path fill="none" stroke="#FEFEFE" stroke-width="5" stroke-miterlimit="10" d="M452.8 461.9c48.3 6.6 85.9 11.6 85.9 11.6"/><path fill="none" stroke="#FEFEFE" stroke-width="3.974" stroke-miterlimit="10" d="M567.7 423.5c1 2-24 46.6-26.4 46.8-1 .2-69.3-6.5-88.4-8.3"/><g><path fill="none" stroke="#FEFEFE" stroke-width="5.96" stroke-miterlimit="10" d="M434.2 258.4c1-7 16.3-19.9 21.1-21.7 10.3-4.4 44.1 33.4 47.7 50.1 1.8 8.7-11.9 55.6-29.8 109.1M330.7 208.4c9.5-9.1 22.8-16.7 27.8-15.7 29.4 6.6 72.5 21.7 72.1 33.6"/><path fill="none" stroke="#FEFEFE" stroke-width="3.974" stroke-miterlimit="10" d="M414.3 467.3c-7.5 28-14.7 52.3-20.9 74.5M456.6 236.4c-6.8 61-15.5 112.4-24.2 154.4M353.9 446.8c-1.2 40.9-2.4 77.1-4 99.9M355.5 378.6c-.4 17.1-.7 31-1.1 47.5M358.5 192.9s-.4 51.9-1.4 114.6"/><path fill="none" stroke="#FEFEFE" stroke-width="5.96" stroke-miterlimit="10" d="M454.4 456.9c1.2 11.3-17.5 16.7-22.5 15.1-11.3-4.2-38.9-19.5-84.6-25.2"/><path fill="none" stroke="#FEFEFE" stroke-width="3.974" stroke-miterlimit="10" d="M337.4 431.6c-1.6.8 83.1-39.4 87.6-41 7.9-3 34.7 5.2 34.7 5.2-.2 0-50.9 10.1-122.3 35.8z"/><path fill="none" stroke="#FEFEFE" stroke-width="5.96" stroke-miterlimit="10" d="M349.9 447.2c73.3 4.6 121.8 12.1 121.8 12.1 2.8-1.8 22.3-45.9 21.5-49.9-1-3.6-22.1-13.5-28-13.5-4.4-.2-68.3 20.7-126.4 32"/><path fill="none" stroke="#FEFEFE" stroke-width="1.987" stroke-miterlimit="10" d="M446.5 451.8s9.9 3.2 25 7.2"/><path fill="none" stroke="#FEFEFE" stroke-width="3.974" stroke-miterlimit="10" d="M464.8 395.7s-17.9 56.2-18.3 56.2c-31.2-3-75.3-4.6-75.3-4.6"/></g><g fill="none" stroke="#FEFEFE" stroke-miterlimit="10"><path stroke-width="7.947" d="M337.6 495.7c.2-10.5-1.6-22.8 10.5-54.6 1-2.2-6.6-3.2-11.1-3.4"/><path stroke-width="3.974" d="M346.2 381.2c-8.1 33-15.5 73.1-10.3 115.8"/><path stroke-width="7.947" d="M258.3 354c61-28.6 81.5-48.5 82.8-49.3 2.2-1 29.6 12.1 29.8 13.9 1.2 10.7-10.7 56-14.7 56.4-2 .2-7.5 2.6-11.7 2"/><path stroke-width="5.96" d="M339.5 520.3c4-4.5 8.1-17.1 11.1-24 0 0-33.7-3-49.7-1.1M341.2 304.7c1 3.2-2.2 60.8-5.4 66.8 0 0-15.7 3.6-58.8 12.9M335.6 371.5l20.9 3.6M328.6 211.1c13.5 8.1 22.6 22 25.3 36.7 4 21.5-2.7 48.4-23.4 63.3"/><path stroke-width="4" d="M276.8 255.1c5.2-12.3 28.6-7.4 31 6 1.2 7.9-2.8 18.7-15.5 18.7-10.1-.1-20.4-13.2-15.5-24.7z"/><path stroke-width="1.987" d="M290.5 264c.4-1 2.2-.2 2.4.4.2.6-.2 1.4-1 1.4-1 0-1.6-.8-1.4-1.8z"/></g><g><path fill="none" stroke="#FEFEFE" stroke-width="6" stroke-miterlimit="10" d="M136 403.3s7.2 28.2 7.7 30.8M181.9 229.6c-14.5-1-69.7 63.2-74.3 77.1M289.7 472.4c13.5-2.6 20.1-42.3 18.5-48.9.6-10.6-18.3-11.4-50.7-69.1M194 425.7s-25.4 12.5-27.4 12.1M142.3 354.8c17.5 19.1 70.5 70.5 101.7 91.2M177.5 230.6c.8 11.3 29.4 95 106.9 174.4M166.8 438c18.3 2.6 41.9 5.6 68.7 2.4M73.4 402.3c9.5 9.5 36 24.4 73.1 32.8M154.4 367.1c3.8 22.1 12.7 73.7 12.7 73.7"/></g><g fill="none" stroke="#FEFEFE" stroke-miterlimit="10"><path stroke-width="14" d="M617.1 328.6v187.7"/><g stroke-width="6"><path d="M282.2 331.6h-38.3M249 514.1h49.3M112.9 331.6H42.8V514h108.1c1-1 1.8-1.4 2.2-1.4M498.7 513.3H610v-182h-61.6M432 513.7h10.5"/></g></g><g fill="none" stroke="#FEFEFE" stroke-width="4" stroke-miterlimit="10"><path d="M638.8 331.6h20.9c19.5 0 30.6 11.1 30.6 26.8v.2c0 15.5-11.3 27.2-30.8 27.2H639l-.2-54.2zm21.3 41.1c8.9 0 14.9-5 14.9-13.7v-.2c0-8.7-6-13.7-14.9-13.7h-6.2v27.6h6.2zM698.2 331.6h15.1v54.2h-15.1v-54.2zM721.4 359c0-15.9 12.3-28.2 29.2-28.2 9.3 0 16.3 3 21.9 7.9l-8.9 10.5c-3.8-3.2-7.7-5.2-13.1-5.2-7.7 0-13.7 6.6-13.7 14.9v.2c0 8.7 6.2 15.1 14.7 15.1 3.6 0 6.4-.8 8.7-2.2v-6.6h-10.7v-11.1h24.8v24.2c-5.8 4.8-13.7 8.3-23.6 8.3-16.7.2-29.3-11.5-29.3-27.8zM780.9 359c0-15.9 12.3-28.2 29.2-28.2 9.3 0 16.3 3 21.9 7.9l-8.9 10.5c-3.8-3.2-7.7-5.2-13.1-5.2-7.7 0-13.7 6.6-13.7 14.9v.2c0 8.7 6.2 15.1 14.7 15.1 3.6 0 6.4-.8 8.7-2.2v-6.6H809v-11.1h24.8v24.2c-5.8 4.8-13.7 8.3-23.6 8.3-16.8.2-29.3-11.5-29.3-27.8zM842.4 331.6h15.1v54.2h-15.1v-54.2zM867.5 331.6h13.9l22.3 28.6v-28.6h14.9v54.2h-13.1L882.2 356v29.8h-14.9l.2-54.2zM926.3 359c0-15.9 12.3-28.2 29.2-28.2 9.3 0 16.3 3 21.9 7.9l-8.9 10.5c-3.8-3.2-7.7-5.2-13.1-5.2-7.7 0-13.7 6.6-13.7 14.9v.2c0 8.7 6.2 15.1 14.7 15.1 3.6 0 6.4-.8 8.7-2.2v-6.6h-10.7v-11.1h24.8v24.2c-5.8 4.8-13.7 8.3-23.6 8.3-16.8.2-29.3-11.5-29.3-27.8zM639.2 395.7h15.1V450h-15.1v-54.3zM664.2 395.7h13.9l22.3 28.6v-28.6h14.9V450H702l-23.2-29.8V450h-14.9l.3-54.3zM738.1 409h-16.3v-13.3h47.5V409H753v41h-14.9v-41zM771.5 422.9c0-15.7 12.5-28.2 29.2-28.2s29 12.5 29 27.8v.2c0 15.5-12.5 28-29.2 28s-29-12.1-29-27.8zm43.1 0c0-7.9-5.6-14.7-13.9-14.7-8.1 0-13.7 6.8-13.7 14.5v.2c0 7.7 5.6 14.7 13.7 14.7 8.4-.1 13.9-6.9 13.9-14.7zM638.8 459.9h15.1v20.3h19.3v-20.3h15.1v54.2H673v-20.5h-19.3v20.5h-15.1v-54.2h.2zM698 459.9h15.1v54.2H698v-54.2zM722.8 459.9H746c13.7 0 22.5 7.2 22.5 19.1v.2c0 12.7-9.7 19.7-23.2 19.7h-7.4v15.5h-15.1v-54.5zm22.1 26.8c5.2 0 8.5-2.8 8.5-7.2v-.2c0-4.8-3.2-7.2-8.7-7.2h-7.2v14.3h7.4v.3zM775.1 459.9h15.1v20.3h19.3v-20.3h15.1v54.2h-15.1v-20.5h-19.3v20.5h-15.1v-54.2zM831.9 487.1c0-15.7 12.5-28.2 29.2-28.2s29 12.5 29 27.8v.2c0 15.5-12.5 28-29.2 28s-29-12.1-29-27.8zm42.9 0c0-7.9-5.6-14.7-13.9-14.7-8.1 0-13.7 6.8-13.7 14.5v.2c0 7.7 5.6 14.7 13.7 14.7 8.6-.2 13.9-6.9 13.9-14.7zM898.1 459.9h23.2c13.7 0 22.5 7.2 22.5 19.1v.2c0 12.7-9.7 19.7-23.2 19.7h-7.4v15.5h-15.1v-54.5zm22 26.8c5.2 0 8.5-2.8 8.5-7.2v-.2c0-4.8-3.2-7.2-8.7-7.2h-7.2v14.3h7.4v.3z"/></g></svg>