<?xml version="1.0" encoding="utf-8"?>
<!-- Generator: Adobe Illustrator 18.0.0, SVG Export Plug-In . SVG Version: 6.00 Build 0)  -->
<!DOCTYPE svg PUBLIC "-//W3C//DTD SVG 1.1//EN" "http://www.w3.org/Graphics/SVG/1.1/DTD/svg11.dtd">
<svg version="1.1" id="logo" xmlns="http://www.w3.org/2000/svg" xmlns:xlink="http://www.w3.org/1999/xlink" x="0px" y="0px"
	 viewBox="31 172 957 387" enable-background="new 31 172 957 387" xml:space="preserve">
<g id="outline">
	<g>
		<path fill="none" stroke="#FFFFFF" stroke-width="8" stroke-miterlimit="10" d="M565.1,333.7c-2.2-0.2-17.3,8.5-17.9,11.3
			c-9.3,34.2-20.9,64.4-31.4,90.4c-1.2,0.2-2.8,0.6-4.2,0.8c12.1-31.6,25.8-69.3,38.7-111.1c2.2-7-24.4-44.9-47.9-60.8
			c-1.2-1-4.4,0.4-8.1,3c-10.5-19.1-26.2-40.2-38.1-39.6c-4.4,0.2-19.5,15.3-21.7,30.7c-4.8,36-6.2,64-18.3,133.6
			c-0.8,0.4-0.9-0.6-1.5-0.3c8.9-53,13.9-104.3,16.2-165.3c0-2.4-1.6-5-4.4-7.4c0.2-2,0.2-4.2,0.4-6.2c0.4-10.7-39.3-24.2-66.4-30.2
			c-6.6-1.4-24.2,16.9-31.8,27.4c-29.2-18.1-74.5-17.7-91.8,13.1c-24.6,43.9,15.9,96,56,95.8c14.9,0,31.6-4,40.9-10.1
			c0.2,1-0.6,1.4-0.4,2.6c-5,3.8-15.7,9.5-24.6,15.1c-14.3,2.2-27.8,5.2-35,8.5c-2.4,1-3.6,5.8-3.6,12.7c-4.4,2.2-7.4,3.7-12.1,5.9
			c-16.9-27.4-36.1-65.5-52.2-119.3c-0.8-2.4-18.5-4-23.6-4.4c-2.6-0.2-6.6,1.8-11.3,5.2c-0.4-1-0.6-1.6-1-2.6
			c-2.8-6.8-59.2,45.1-62.8,55.8c-0.6,1.6,0.6,4.4,4.2,9.5c-2.2,3.2-2.8,7.2-3.6,8.9c-0.6,1.8,1.2,5.8,5,11.3
			c-1.4,1.4-2.2,3.2-2,4.6c1.4,7,13.5,45.7,23.6,79.7c-12.3-7.2-17.7-11.5-19.5-11.1c-3.4,0.6-41.1,5.2-41.1,11.3
			c0,13.1,37.4,92.8,56.6,101.1c8.7,3.8,84.6-1.4,160.3-31.2l0,0c1.2-0.4,2.6-1,3.8-2.2c2.8,9.3,5.4,17.5,7.7,23.8
			c-7,0.4-11.9,1-12.9,1.4c-1.6,1,2.6,12.7,4.8,13.5c11.7,3.8,33.4,10.7,45.7,11.5c1.6,0.2,3.2-1.6,4.2-4.2
			c0.2,8.5,0.4,16.5,0.6,24.4c0,0.6,3.2,5.2,4.8,5.6c8.1,1.8,31.6-1.2,32.2-4.2c7-26,11.7-51.3,17.9-81.1c0.8,0.2,4,1.4,4.6,1.8
			c-4.4,22.5-9.7,43.7-15.9,72.5c-0.4,1.2,3.4,6.2,5.4,6.2c11.3-0.4,30.8-7.2,31.6-8.7c7-18.5,14.7-39.9,22.6-62.2
			c0.2-0.2,0.4-0.4,0.6-0.6c-6.6,41.6-8.1,49.3-8.1,49.9c0,1.4,2.8,10.5,4.8,11.1c1,0.4,7.7-1.6,14.5-3.8c-0.8,0.4-1.8,1.6-0.8,1.6
			c8.3,0,14.3-1.4,15.1-2c0.6-0.4,1.8-3,1.6-3.2c-0.2-0.2-1.2-1.2-1.6-1c-3.2,1-4.8,2.2-14.1,4.6c7.2-2.6,14.9-5.4,15.9-7
			c1.6-2.2,9.9-20.3,22.6-51.3c1.2,0,2.5,0.2,3.6,0.2c-7.9,17.5-14,29.2-17,36.6c-1,2.2,1.2,11.3,3.4,11.3
			c4.6,0.2,34-13.5,35.8-16.9c4.9-9.2,9.4-17.2,13.6-24.6c0.7-1.2,5.5-0.4,5.5-0.4c3.8,0.3,8.5-2.6,9.1-2.8c2.6-1,23.6-22.6,24-26.2
			c0.6-3.8-2-20.1-6.4-22.5c7.2-10.7,10.5-14.9,10.7-18.9C580.6,398.3,567.3,333.7,565.1,333.7z M194,425.7c0,0-1-9.3-3.2-22.6
			c10.1,9.3,20.3,18.5,30.4,26.8C211.7,428.9,202.5,427.7,194,425.7z"/>
		<path fill="none" stroke="#FFFFFF" stroke-width="8" stroke-miterlimit="10" d="M575.8,447.8c-0.6,0-19.3,24.6-19.5,25.8
			c-0.2,2.2,9.7,4.8,11.9,3c2.8-2.2,9.3-17.1,10.3-20.3C579.6,454.1,577.4,447.8,575.8,447.8z"/>
		<path fill="none" stroke="#FFFFFF" stroke-width="8" stroke-miterlimit="10" d="M298.5,512c-0.8,0.2,1.2,5.4,2.6,6.2
			c6.2,4,17.3,11.3,23.8,14.3c3.2,1.4,4.4-7.2,3.8-8.9C328.3,523.5,299.9,511.8,298.5,512z"/>
		<path fill="none" stroke="#FFFFFF" stroke-width="8" stroke-miterlimit="10" d="M283.8,479.6c-57.2,19.7-128.5,32-130.7,32.6
			c-1.6,0.4-8.9,7.5-9.1,8.9c-0.2,1.8,22.3,12.5,26.2,12.9c6.2,0.6,62.8-22.5,109.9-45.7C281.6,487.5,284.6,479.4,283.8,479.6z"/>
		<path fill="none" stroke="#FFFFFF" stroke-width="8" stroke-miterlimit="10" d="M281.4,488.5c-53.8,27.4-97,46.5-100.3,48.5
			c-2,1,18.1,6.4,21.7,5.4c3.6-1,37-22.1,71.7-45.3C276.2,495.9,282.6,487.9,281.4,488.5z"/>
	</g>
</g>
<g id="details">
	<g id="H_1_">
		<path fill="none" stroke="#FFFFFF" stroke-width="3.9735" stroke-miterlimit="10" d="M512.4,472c-11.7,23.6-21.7,40.5-25.2,46.3"
			/>
		<path fill="none" stroke="#FFFFFF" stroke-width="3.9735" stroke-miterlimit="10" d="M565.1,334.5c-7.9,33.2-21.3,67.4-34.2,97.3"
			/>
		<path fill="none" stroke="#FFFFFF" stroke-width="3.9735" stroke-miterlimit="10" d="M466.5,459.9c-9.7,38.9-17.7,68.5-18.1,70.9"
			/>
		<path fill="none" stroke="#FFFFFF" stroke-width="3.9735" stroke-miterlimit="10" d="M505.9,264.4c0.2,23-12.3,81.3-25.2,135.7"/>
		<path fill="none" stroke="#FFFFFF" stroke-width="5.9602" stroke-miterlimit="10" d="M567.7,423.5c-14.5,5-44.3,13.5-86.8,17.5"/>
		<path fill="none" stroke="#FFFFFF" stroke-width="5" stroke-miterlimit="10" d="M452.8,461.9c48.3,6.6,85.9,11.6,85.9,11.6"/>
		<path fill="none" stroke="#FFFFFF" stroke-width="3.9735" stroke-miterlimit="10" d="M567.7,423.5c1,2-24,46.6-26.4,46.8
			c-1,0.2-69.3-6.5-88.4-8.3"/>
		<g id="reflets_3_">
		</g>
	</g>
	<g id="H">
		<path fill="none" stroke="#FFFFFF" stroke-width="5.9602" stroke-miterlimit="10" d="M434.2,258.4c1-7,16.3-19.9,21.1-21.7
			c10.3-4.4,44.1,33.4,47.7,50.1c1.8,8.7-11.9,55.6-29.8,109.1"/>
		<path fill="none" stroke="#FFFFFF" stroke-width="5.9602" stroke-miterlimit="10" d="M330.7,208.4c9.5-9.1,22.8-16.7,27.8-15.7
			c29.4,6.6,72.5,21.7,72.1,33.6"/>
		<path fill="none" stroke="#FFFFFF" stroke-width="3.9735" stroke-miterlimit="10" d="M414.3,467.3c-7.5,28-14.7,52.3-20.9,74.5"/>
		<path fill="none" stroke="#FFFFFF" stroke-width="3.9735" stroke-miterlimit="10" d="M456.6,236.4c-6.8,61-15.5,112.4-24.2,154.4"
			/>
		<path fill="none" stroke="#FFFFFF" stroke-width="3.9735" stroke-miterlimit="10" d="M353.9,446.8c-1.2,40.9-2.4,77.1-4,99.9"/>
		<path fill="none" stroke="#FFFFFF" stroke-width="3.9735" stroke-miterlimit="10" d="M355.5,378.6c-0.4,17.1-0.7,31-1.1,47.5"/>
		<path fill="none" stroke="#FFFFFF" stroke-width="3.9735" stroke-miterlimit="10" d="M358.5,192.9c0,0-0.4,51.9-1.4,114.6"/>
		<path fill="none" stroke="#FFFFFF" stroke-width="5.9602" stroke-miterlimit="10" d="M454.4,456.9c1.2,11.3-17.5,16.7-22.5,15.1
			c-11.3-4.2-38.9-19.5-84.6-25.2"/>
		<path fill="none" stroke="#FFFFFF" stroke-width="3.9735" stroke-miterlimit="10" d="M337.4,431.6c-1.6,0.8,83.1-39.4,87.6-41
			c7.9-3,34.7,5.2,34.7,5.2C459.5,395.8,408.8,405.9,337.4,431.6z"/>
		<path fill="none" stroke="#FFFFFF" stroke-width="5.9602" stroke-miterlimit="10" d="M349.9,447.2c73.3,4.6,121.8,12.1,121.8,12.1
			c2.8-1.8,22.3-45.9,21.5-49.9c-1-3.6-22.1-13.5-28-13.5c-4.4-0.2-68.3,20.7-126.4,32"/>
		<path fill="none" stroke="#FFFFFF" stroke-width="1.9867" stroke-miterlimit="10" d="M446.5,451.8c0,0,9.9,3.2,25,7.2"/>
		<g id="reflets_2_">
			<path display="none" fill="none" stroke="#FFFFFF" stroke-miterlimit="10" d="M540.5,219.9c-0.6,0.9-1.5,8.3-1.9,12.5
				c1.6-2.7,7.9-14.7,7.9-14.7s0.5-3.1,0.6-4.5C544.8,214.9,541.8,218.2,540.5,219.9z"/>
			<path display="none" fill="none" stroke="#FFFFFF" stroke-miterlimit="10" d="M525.1,198.5c0,0,9.2,3.6,9.4,4.7
				c0.2,1.2-1.3,14.8-1.3,14.8L525.1,198.5z"/>
		</g>
		<path fill="none" stroke="#FFFFFF" stroke-width="3.9735" stroke-miterlimit="10" d="M464.8,395.7c0,0-17.9,56.2-18.3,56.2
			c-31.2-3-75.3-4.6-75.3-4.6"/>
	</g>
	<g id="I">
		<path fill="none" stroke="#FFFFFF" stroke-width="7.9469" stroke-miterlimit="10" d="M337.6,495.7c0.2-10.5-1.6-22.8,10.5-54.6
			c1-2.2-6.6-3.2-11.1-3.4"/>
		<path fill="none" stroke="#FFFFFF" stroke-width="3.9735" stroke-miterlimit="10" d="M346.2,381.2c-8.1,33-15.5,73.1-10.3,115.8"
			/>
		<path fill="none" stroke="#FFFFFF" stroke-width="7.9469" stroke-miterlimit="10" d="M258.3,354c61-28.6,81.5-48.5,82.8-49.3
			c2.2-1,29.6,12.1,29.8,13.9c1.2,10.7-10.7,56-14.7,56.4c-2,0.2-7.5,2.6-11.7,2"/>
		<path fill="none" stroke="#FFFFFF" stroke-width="5.9602" stroke-miterlimit="10" d="M339.5,520.3c4-4.5,8.1-17.1,11.1-24
			c0,0-33.7-3-49.7-1.1"/>
		<path fill="none" stroke="#FFFFFF" stroke-width="5.9602" stroke-miterlimit="10" d="M341.2,304.7c1,3.2-2.2,60.8-5.4,66.8
			c0,0-15.7,3.6-58.8,12.9"/>
		<line fill="none" stroke="#FFFFFF" stroke-width="5.9602" stroke-miterlimit="10" x1="335.6" y1="371.5" x2="356.5" y2="375.1"/>
		<g id="DISC">
			<path fill="none" stroke="#FFFFFF" stroke-width="5.9602" stroke-miterlimit="10" d="M328.6,211.1c13.5,8.1,22.6,22,25.3,36.7
				c4,21.5-2.7,48.4-23.4,63.3"/>
			<path fill="none" stroke="#FFFFFF" stroke-width="4" stroke-miterlimit="10" d="M276.8,255.1c5.2-12.3,28.6-7.4,31,6
				c1.2,7.9-2.8,18.7-15.5,18.7C282.2,279.7,271.9,266.6,276.8,255.1z"/>
			<path fill="none" stroke="#FFFFFF" stroke-width="1.9867" stroke-miterlimit="10" d="M290.5,264c0.4-1,2.2-0.2,2.4,0.4
				c0.2,0.6-0.2,1.4-1,1.4C290.9,265.8,290.3,265,290.5,264z"/>
		</g>
	</g>
	<g id="D">
		<path display="none" fill="none" stroke="#FFFFFF" stroke-width="6" stroke-miterlimit="10" d="M366.5,366
			c-0.4-0.5,12.8-11.1,13.1-10.5c2.1,3.2,7.8,6.2,8.3,6.7s-3.6,3.5-4.3,3.6C382.1,366.3,367.2,367.2,366.5,366z"/>
		<path fill="none" stroke="#FFFFFF" stroke-width="6" stroke-miterlimit="10" d="M136,403.3c0,0,7.2,28.2,7.7,30.8"/>
		<path fill="none" stroke="#FFFFFF" stroke-width="6" stroke-miterlimit="10" d="M181.9,229.6c-14.5-1-69.7,63.2-74.3,77.1"/>
		<path fill="none" stroke="#FFFFFF" stroke-width="6" stroke-miterlimit="10" d="M289.7,472.4c13.5-2.6,20.1-42.3,18.5-48.9
			c0.6-10.6-18.3-11.4-50.7-69.1"/>
		<path fill="none" stroke="#FFFFFF" stroke-width="6" stroke-miterlimit="10" d="M194,425.7c0,0-25.4,12.5-27.4,12.1"/>
		<path fill="none" stroke="#FFFFFF" stroke-width="6" stroke-miterlimit="10" d="M142.3,354.8c17.5,19.1,70.5,70.5,101.7,91.2"/>
		<path fill="none" stroke="#FFFFFF" stroke-width="6" stroke-miterlimit="10" d="M177.5,230.6c0.8,11.3,29.4,95,106.9,174.4"/>
		<path fill="none" stroke="#FFFFFF" stroke-width="6" stroke-miterlimit="10" d="M166.8,438c18.3,2.6,41.9,5.6,68.7,2.4"/>
		<path fill="none" stroke="#FFFFFF" stroke-width="6" stroke-miterlimit="10" d="M73.4,402.3c9.5,9.5,36,24.4,73.1,32.8"/>
		<path fill="none" stroke="#FFFFFF" stroke-width="6" stroke-miterlimit="10" d="M154.4,367.1c3.8,22.1,12.7,73.7,12.7,73.7"/>
		<g id="reflets">
		</g>
	</g>
</g>
<g id="rectangle">
	<line fill="none" stroke="#FFFFFF" stroke-width="14" stroke-miterlimit="10" x1="617.1" y1="328.6" x2="617.1" y2="516.3"/>
	<g>
		<path fill="none" stroke="#FFFFFF" stroke-width="6" stroke-miterlimit="10" d="M282.2,331.6h-38.3"/>
		<path fill="none" stroke="#FFFFFF" stroke-width="6" stroke-miterlimit="10" d="M249,514.1h49.3"/>
		<path fill="none" stroke="#FFFFFF" stroke-width="6" stroke-miterlimit="10" d="M112.9,331.6H42.8V514h108.1c1-1,1.8-1.4,2.2-1.4"
			/>
		<path fill="none" stroke="#FFFFFF" stroke-width="6" stroke-miterlimit="10" d="M498.7,513.3H610v-182h-61.6"/>
		<path fill="none" stroke="#FFFFFF" stroke-width="6" stroke-miterlimit="10" d="M432,513.7h10.5"/>
	</g>
</g>
<g id="text">
	<path fill="none" stroke="#FFFFFF" stroke-width="4" stroke-miterlimit="10" d="M638.8,331.6h20.9c19.5,0,30.6,11.1,30.6,26.8v0.2
		c0,15.5-11.3,27.2-30.8,27.2H639L638.8,331.6L638.8,331.6z M660.1,372.7c8.9,0,14.9-5,14.9-13.7v-0.2c0-8.7-6-13.7-14.9-13.7h-6.2
		v27.6L660.1,372.7L660.1,372.7z"/>
	<path fill="none" stroke="#FFFFFF" stroke-width="4" stroke-miterlimit="10" d="M698.2,331.6h15.1v54.2h-15.1V331.6z"/>
	<path fill="none" stroke="#FFFFFF" stroke-width="4" stroke-miterlimit="10" d="M721.4,359L721.4,359c0-15.9,12.3-28.2,29.2-28.2
		c9.3,0,16.3,3,21.9,7.9l-8.9,10.5c-3.8-3.2-7.7-5.2-13.1-5.2c-7.7,0-13.7,6.6-13.7,14.9v0.2c0,8.7,6.2,15.1,14.7,15.1
		c3.6,0,6.4-0.8,8.7-2.2v-6.6h-10.7v-11.1h24.8v24.2c-5.8,4.8-13.7,8.3-23.6,8.3C734,387,721.4,375.3,721.4,359z"/>
	<path fill="none" stroke="#FFFFFF" stroke-width="4" stroke-miterlimit="10" d="M780.9,359L780.9,359c0-15.9,12.3-28.2,29.2-28.2
		c9.3,0,16.3,3,21.9,7.9l-8.9,10.5c-3.8-3.2-7.7-5.2-13.1-5.2c-7.7,0-13.7,6.6-13.7,14.9v0.2c0,8.7,6.2,15.1,14.7,15.1
		c3.6,0,6.4-0.8,8.7-2.2v-6.6H809v-11.1h24.8v24.2c-5.8,4.8-13.7,8.3-23.6,8.3C793.4,387,780.9,375.3,780.9,359z"/>
	<path fill="none" stroke="#FFFFFF" stroke-width="4" stroke-miterlimit="10" d="M842.4,331.6h15.1v54.2h-15.1V331.6z"/>
	<path fill="none" stroke="#FFFFFF" stroke-width="4" stroke-miterlimit="10" d="M867.5,331.6h13.9l22.3,28.6v-28.6h14.9v54.2h-13.1
		L882.2,356v29.8h-14.9L867.5,331.6L867.5,331.6z"/>
	<path fill="none" stroke="#FFFFFF" stroke-width="4" stroke-miterlimit="10" d="M926.3,359L926.3,359c0-15.9,12.3-28.2,29.2-28.2
		c9.3,0,16.3,3,21.9,7.9l-8.9,10.5c-3.8-3.2-7.7-5.2-13.1-5.2c-7.7,0-13.7,6.6-13.7,14.9v0.2c0,8.7,6.2,15.1,14.7,15.1
		c3.6,0,6.4-0.8,8.7-2.2v-6.6h-10.7v-11.1h24.8v24.2c-5.8,4.8-13.7,8.3-23.6,8.3C938.8,387,926.3,375.3,926.3,359z"/>
	<path fill="none" stroke="#FFFFFF" stroke-width="4" stroke-miterlimit="10" d="M639.2,395.7h15.1V450h-15.1V395.7z"/>
	<path fill="none" stroke="#FFFFFF" stroke-width="4" stroke-miterlimit="10" d="M664.2,395.7h13.9l22.3,28.6v-28.6h14.9V450H702
		l-23.2-29.8V450h-14.9L664.2,395.7L664.2,395.7z"/>
	<path fill="none" stroke="#FFFFFF" stroke-width="4" stroke-miterlimit="10" d="M738.1,409h-16.3v-13.3h47.5V409H753v41h-14.9V409z
		"/>
	<path fill="none" stroke="#FFFFFF" stroke-width="4" stroke-miterlimit="10" d="M771.5,422.9L771.5,422.9
		c0-15.7,12.5-28.2,29.2-28.2s29,12.5,29,27.8v0.2c0,15.5-12.5,28-29.2,28S771.5,438.6,771.5,422.9z M814.6,422.9L814.6,422.9
		c0-7.9-5.6-14.7-13.9-14.7c-8.1,0-13.7,6.8-13.7,14.5v0.2c0,7.7,5.6,14.7,13.7,14.7C809.1,437.5,814.6,430.7,814.6,422.9z"/>
	<path fill="none" stroke="#FFFFFF" stroke-width="4" stroke-miterlimit="10" d="M638.8,459.9h15.1v20.3h19.3v-20.3h15.1v54.2H673
		v-20.5h-19.3v20.5h-15.1v-54.2L638.8,459.9L638.8,459.9z"/>
	<path fill="none" stroke="#FFFFFF" stroke-width="4" stroke-miterlimit="10" d="M698,459.9h15.1v54.2H698V459.9z"/>
	<path fill="none" stroke="#FFFFFF" stroke-width="4" stroke-miterlimit="10" d="M722.8,459.9H746c13.7,0,22.5,7.2,22.5,19.1v0.2
		c0,12.7-9.7,19.7-23.2,19.7h-7.4v15.5h-15.1V459.9z M744.9,486.7c5.2,0,8.5-2.8,8.5-7.2v-0.2c0-4.8-3.2-7.2-8.7-7.2h-7.2v14.3h7.4
		V486.7z"/>
	<path fill="none" stroke="#FFFFFF" stroke-width="4" stroke-miterlimit="10" d="M775.1,459.9h15.1v20.3h19.3v-20.3h15.1v54.2h-15.1
		v-20.5h-19.3v20.5h-15.1V459.9z"/>
	<path fill="none" stroke="#FFFFFF" stroke-width="4" stroke-miterlimit="10" d="M831.9,487.1L831.9,487.1
		c0-15.7,12.5-28.2,29.2-28.2s29,12.5,29,27.8v0.2c0,15.5-12.5,28-29.2,28S831.9,502.8,831.9,487.1z M874.8,487.1L874.8,487.1
		c0-7.9-5.6-14.7-13.9-14.7c-8.1,0-13.7,6.8-13.7,14.5v0.2c0,7.7,5.6,14.7,13.7,14.7C869.5,501.6,874.8,494.9,874.8,487.1z"/>
	<path fill="none" stroke="#FFFFFF" stroke-width="4" stroke-miterlimit="10" d="M898.1,459.9h23.2c13.7,0,22.5,7.2,22.5,19.1v0.2
		c0,12.7-9.7,19.7-23.2,19.7h-7.4v15.5h-15.1V459.9z M920.1,486.7c5.2,0,8.5-2.8,8.5-7.2v-0.2c0-4.8-3.2-7.2-8.7-7.2h-7.2v14.3h7.4
		V486.7z"/>
</g>
</svg>
